<svg width="420" height="420" viewBox="0 0 420 420" fill="none" xmlns="http://www.w3.org/2000/svg">
  <defs>
    <linearGradient id="bg" x1="0" y1="0" x2="1" y2="1">
      <stop offset="0%" stop-color="#F6F1FF"/>
      <stop offset="100%" stop-color="#E7DBFF"/>
    </linearGradient>
    <linearGradient id="planet" x1="0" y1="0" x2="1" y2="1">
      <stop offset="0%" stop-color="#D7C5FF"/>
      <stop offset="100%" stop-color="#C2A9F5"/>
    </linearGradient>
  </defs>
  <rect x="0" y="0" width="420" height="420" rx="40" fill="url(#bg)"/>
  <circle cx="210" cy="250" r="86" fill="url(#planet)" stroke="#8D72C9" stroke-width="6"/>
  <ellipse cx="210" cy="253" rx="145" ry="36" transform="rotate(-10 210 253)" fill="#EFE8FF" stroke="#8D72C9" stroke-width="6"/>
  <path d="M161 186C174 148 246 148 259 186V241H161V186Z" fill="#FDEBCF" stroke="#8D72C9" stroke-width="6"/>
  <path d="M177 156L157 118L196 137L177 156Z" fill="#FDEBCF" stroke="#8D72C9" stroke-width="6"/>
  <path d="M243 156L263 118L224 137L243 156Z" fill="#FDEBCF" stroke="#8D72C9" stroke-width="6"/>
  <ellipse cx="186" cy="180" rx="7" ry="5" fill="#8D72C9"/>
  <ellipse cx="233" cy="180" rx="7" ry="5" fill="#8D72C9"/>
  <path d="M193 198C201 205 219 205 227 198" stroke="#8D72C9" stroke-width="5" stroke-linecap="round"/>
  <circle cx="126" cy="104" r="16" fill="#D7ECF8"/>
  <circle cx="312" cy="96" r="20" fill="#D7ECF8"/>
  <circle cx="337" cy="144" r="10" fill="#E7DFFF"/>
  <circle cx="88" cy="156" r="10" fill="#E7DFFF"/>
</svg>
